<svg xmlns="http://www.w3.org/2000/svg" width="65" height="51" viewBox="0 0 65 51" fill="none">
    <path d="M63.7782 16.823C64.2694 16.4117 65 16.7964 65 17.4466V44.5783C65 48.0941 62.2919 50.9466 58.9539 50.9466H6.55479C3.21686 50.9466 0.508728 48.0941 0.508728 44.5783V17.4598C0.508728 16.7965 1.2267 16.425 1.73054 16.8363C4.55203 19.1448 8.29303 22.0769 21.1409 31.9079C23.7986 33.9511 28.2828 38.2497 32.7544 38.2232C37.2511 38.263 41.8235 33.8715 44.3804 31.9079C57.2283 22.0769 60.9567 19.1315 63.7782 16.823ZM32.7544 33.9644C35.6766 34.0175 39.8837 30.0903 41.9998 28.4717C58.7146 15.6953 59.9868 14.5808 63.8412 11.3966C64.5717 10.7996 65 9.8709 65 8.88912V6.36832C65 2.85248 62.2919 0 58.9539 0H6.55479C3.21686 0 0.508728 2.85248 0.508728 6.36832V8.88912C0.508728 9.8709 0.93699 10.7863 1.66756 11.3966C5.52192 14.5675 6.79411 15.6953 23.5089 28.4717C25.6251 30.0903 29.8321 34.0175 32.7544 33.9644Z" fill="#3F324D"/>
</svg>