<svg xmlns="http://www.w3.org/2000/svg" width="52" height="51" viewBox="0 0 52 51" fill="none">
    <path d="M25.7435 19.4075C24.5312 19.4079 23.3462 19.764 22.3384 20.4308C21.3306 21.0976 20.5452 22.0451 20.0816 23.1536C19.618 24.262 19.4969 25.4816 19.7337 26.6581C19.9705 27.8346 20.5545 28.9152 21.4119 29.7633C22.2694 30.6114 23.3616 31.1889 24.5507 31.4227C25.7398 31.6566 26.9723 31.5363 28.0923 31.0772C29.2123 30.618 30.1695 29.8405 30.843 28.843C31.5165 27.8456 31.876 26.6729 31.876 25.4733C31.8748 23.8645 31.2282 22.322 30.0783 21.1846C28.9285 20.0473 27.3694 19.4081 25.7435 19.4075ZM40.076 14.7449C39.7639 13.9624 39.2927 13.2516 38.6915 12.6567C38.0903 12.0618 37.372 11.5955 36.5811 11.2867C34.1676 10.344 28.4213 10.5555 25.7435 10.5555C23.0657 10.5555 17.3252 10.336 14.9048 11.2867C14.1139 11.5955 13.3956 12.0618 12.7944 12.6567C12.1932 13.2516 11.722 13.9624 11.4099 14.7449C10.4583 17.1331 10.6709 22.8248 10.6709 25.4722C10.6709 28.1196 10.4583 33.8044 11.4145 36.2005C11.7266 36.9831 12.1978 37.6939 12.799 38.2887C13.4002 38.8836 14.1185 39.3499 14.9094 39.6587C17.3229 40.6015 23.0692 40.3899 25.7481 40.3899C28.427 40.3899 34.1653 40.6094 36.5857 39.6587C37.3766 39.3499 38.0949 38.8836 38.6961 38.2887C39.2973 37.6939 39.7685 36.9831 40.0806 36.2005C41.0402 33.8124 40.8196 28.1207 40.8196 25.4733C40.8196 22.8259 41.0402 17.1422 40.0806 14.7461L40.076 14.7449ZM25.7435 34.7983C23.8796 34.7983 22.0576 34.2514 20.5078 33.2268C18.9581 32.2021 17.7502 30.7458 17.0369 29.0418C16.3236 27.3379 16.137 25.4629 16.5006 23.6541C16.8643 21.8452 17.7618 20.1836 19.0798 18.8795C20.3977 17.5754 22.0769 16.6872 23.905 16.3274C25.7331 15.9676 27.6279 16.1523 29.3499 16.8581C31.0719 17.5639 32.5437 18.7591 33.5793 20.2926C34.6148 21.8261 35.1675 23.629 35.1675 25.4733C35.169 26.6983 34.9263 27.9116 34.4532 29.0436C33.9801 30.1756 33.286 31.2042 32.4106 32.0704C31.5352 32.9366 30.4958 33.6235 29.3517 34.0916C28.2077 34.5597 26.9815 34.7998 25.7435 34.7983ZM35.5559 17.9337C35.1208 17.9339 34.6954 17.8064 34.3335 17.5674C33.9716 17.3283 33.6895 16.9885 33.5229 16.5908C33.3562 16.1931 33.3125 15.7554 33.3972 15.3331C33.482 14.9108 33.6914 14.5229 33.999 14.2184C34.3065 13.9138 34.6985 13.7064 35.1252 13.6224C35.552 13.5383 35.9943 13.5813 36.3963 13.746C36.7983 13.9107 37.1419 14.1897 37.3837 14.5477C37.6254 14.9056 37.7545 15.3265 37.7545 15.757C37.7557 16.043 37.6998 16.3263 37.5901 16.5908C37.4804 16.8553 37.319 17.0958 37.1152 17.2984C36.9114 17.501 36.6691 17.6619 36.4023 17.7717C36.1355 17.8815 35.8495 17.9381 35.5605 17.9382L35.5559 17.9337ZM45.9706 0H5.51647C4.05341 0 2.65027 0.575097 1.61574 1.59878C0.581198 2.62245 0 4.01086 0 5.45856L0 45.488C0 46.9357 0.581198 48.3241 1.61574 49.3478C2.65027 50.3715 4.05341 50.9466 5.51647 50.9466H45.9706C47.4336 50.9466 48.8368 50.3715 49.8713 49.3478C50.9058 48.3241 51.487 46.9357 51.487 45.488V5.45856C51.487 4.01086 50.9058 2.62245 49.8713 1.59878C48.8368 0.575097 47.4336 0 45.9706 0ZM44.003 32.9788C43.8548 35.8935 43.1825 38.476 41.0322 40.5981C38.8819 42.7201 36.2742 43.399 33.3321 43.5377C30.2969 43.7072 21.197 43.7072 18.1618 43.5377C15.2163 43.391 12.6155 42.7246 10.4618 40.5981C8.30803 38.4715 7.63111 35.8878 7.4909 32.9788C7.31966 29.9743 7.31966 20.9688 7.4909 17.9678C7.63916 15.0531 8.30343 12.4705 10.4618 10.3485C12.6201 8.22651 15.2278 7.55556 18.1618 7.41682C21.197 7.24738 30.2969 7.24738 33.3321 7.41682C36.2777 7.56352 38.8865 8.22992 41.0322 10.3565C43.1779 12.483 43.8628 15.0668 44.003 17.9814C44.1743 20.9745 44.1743 29.9721 44.003 32.9788Z" fill="#3F324D"/>
</svg>