<svg xmlns="http://www.w3.org/2000/svg" width="1980" height="148" viewBox="0 0 1980 148" fill="none">
    <path d="M0 22.973C110.001 18.758 220.002 14.543 329.999 15.346C440 16.15 550 21.972 660.001 19.16C769.999 16.348 879.999 4.902 990 5.813C1100 6.724 1210 19.992 1320 24.88C1430 29.768 1540 26.276 1650 21.066C1760 15.856 1870 8.928 1980 2M0 57.293C110.001 50.578 220.002 43.863 329.999 42.04C440 40.216 550 43.284 660.001 49.666C769.999 56.049 879.999 65.746 990 64.92C1100 64.093 1210 52.744 1320 49.666C1430 46.589 1540 51.783 1650 53.48C1760 55.176 1870 53.375 1980 51.573M0 103.053C110.001 104.783 220.002 106.513 329.999 104.96C440 103.407 550 98.571 660.001 95.426C769.999 92.282 879.999 90.829 990 91.613C1100 92.397 1210 95.417 1320 93.52C1430 91.622 1540 84.806 1650 83.986C1760 83.167 1870 88.343 1980 93.52M0 135.466C110.001 131.228 220.002 126.991 329.999 125.933C440 124.875 550 126.998 660.001 127.84C769.999 128.681 879.999 128.242 990 131.653C1100 135.064 1210 142.325 1320 145C1430 147.675 1540 145.764 1650 145C1760 144.235 1870 144.618 1980 145" stroke="#5A618F" stroke-width="3"/>
</svg>