<svg xmlns="http://www.w3.org/2000/svg" width="918" height="131" viewBox="0 0 918 131" fill="none">
<path d="M-135 20.4487C-76.5551 16.741 -18.1103 13.0333 40.3327 13.7397C98.7776 14.4469 157.222 19.5681 215.667 17.0946C274.11 14.621 332.555 4.55271 391 5.35406C449.445 6.15541 507.89 17.8265 566.333 22.1261C624.778 26.4258 683.222 23.3541 741.667 18.7712C800.11 14.1883 858.555 8.09413 917 2M-135 50.6378C-76.5551 44.7311 -18.1103 38.8243 40.3327 37.2207C98.7776 35.6163 157.222 38.315 215.667 43.9288C274.11 49.5436 332.555 58.0734 391 57.3468C449.445 56.6194 507.89 46.6364 566.333 43.9288C624.778 41.2222 683.222 45.791 741.667 47.2838C800.11 48.7756 858.555 47.1914 917 45.6063M-135 90.8901C-76.5551 92.4119 -18.1103 93.9337 40.3327 92.5676C98.7776 91.2015 157.222 86.9476 215.667 84.1811C274.11 81.4155 332.555 80.1374 391 80.827C449.445 81.5167 507.89 84.1732 566.333 82.5045C624.778 80.835 683.222 74.8393 741.667 74.118C800.11 73.3976 858.555 77.9506 917 82.5045M-135 119.402C-76.5551 115.674 -18.1103 111.947 40.3327 111.016C98.7776 110.086 157.222 111.953 215.667 112.694C274.11 113.433 332.555 113.047 391 116.048C449.445 119.048 507.89 125.435 566.333 127.788C624.778 130.141 683.222 128.46 741.667 127.788C800.11 127.115 858.555 127.452 917 127.788" stroke="#5A618F" stroke-width="3"/>
</svg>