<svg xmlns="http://www.w3.org/2000/svg" width="52" height="52" viewBox="0 0 52 52" fill="none">
    <path d="M48.1559 0H3.93265C1.81779 0 0.101532 1.65534 0.101532 3.69373V47.5636C0.101532 49.6048 1.81779 51.2623 3.93265 51.2623H48.1559C50.2722 51.2623 52 49.6048 52 47.5636V3.69373C52 1.65534 50.2722 0 48.1559 0ZM15.4938 43.6826H7.7926V19.2198H15.4938V43.6826ZM11.6432 15.8749C9.17583 15.8749 7.18135 13.8999 7.18135 11.465C7.18135 9.03356 9.17583 7.05853 11.6432 7.05853C14.1047 7.05853 16.1043 9.03356 16.1043 11.465C16.1043 13.8999 14.1047 15.8749 11.6432 15.8749ZM44.3234 43.6826H36.6344V31.7869C36.6344 28.949 36.5782 25.3001 32.6332 25.3001C28.6269 25.3001 28.0164 28.3908 28.0164 31.5811V43.6833H20.3218V19.2198H27.7065V22.5604H27.8117C28.8396 20.6381 31.3509 18.6096 35.0962 18.6096C42.8853 18.6096 44.3241 23.6746 44.3241 30.264L44.3234 43.6826Z" fill="#3F324D"/>
</svg>