<svg xmlns="http://www.w3.org/2000/svg" width="52" height="51" viewBox="0 0 52 51" fill="none">
    <path d="M26.4892 10.3258C18.2095 10.3258 11.4788 17.0466 11.4674 25.3141C11.4674 28.1457 12.2646 30.9091 13.7679 33.2859L14.121 33.8545L12.6063 39.3813L18.2893 37.8915L18.8359 38.2213C21.1364 39.5859 23.7786 40.3138 26.4778 40.3138H26.4892C34.7574 40.3138 41.6704 33.5929 41.6704 25.3255C41.6704 21.3225 39.9393 17.5584 37.1035 14.7267C34.2563 11.8837 30.498 10.3258 26.4892 10.3258ZM35.3155 31.7506C34.9396 32.8082 33.1402 33.7635 32.2747 33.8886C30.8397 34.1046 29.7236 33.9909 26.865 32.7627C22.3437 30.8068 19.3826 26.258 19.1548 25.9623C18.927 25.6666 17.3098 23.5173 17.3098 21.2998C17.3098 19.0822 18.4715 17.9905 18.8929 17.5356C19.3029 17.0808 19.7926 16.967 20.1001 16.967C20.3962 16.967 20.7037 16.967 20.9656 16.9784C21.2389 16.9898 21.6148 16.8761 21.9792 17.7517C22.355 18.6501 23.2548 20.8676 23.3686 21.0951C23.4825 21.3225 23.5623 21.5841 23.4028 21.8797C22.5373 23.6083 21.6148 23.54 22.0817 24.3361C23.8242 27.3269 25.5667 28.3618 28.2203 29.6923C28.6758 29.9197 28.9378 29.8856 29.1997 29.5786C29.4616 29.2829 30.3272 28.2594 30.6233 27.8159C30.9194 27.361 31.2269 27.4406 31.6369 27.5885C32.0469 27.7363 34.2677 28.828 34.7232 29.0555C35.1788 29.2829 35.4749 29.3966 35.5888 29.5786C35.6913 29.7947 35.6913 30.7044 35.3155 31.7506ZM46.5334 0H6.44494C3.42692 0 0.978333 2.44498 0.978333 5.45856V45.488C0.978333 48.5016 3.42692 50.9466 6.44494 50.9466H46.5334C49.5514 50.9466 52 48.5016 52 45.488V5.45856C52 2.44498 49.5514 0 46.5334 0ZM26.4778 43.3501C23.4484 43.3501 20.4759 42.5882 17.8451 41.1553L8.26714 43.6685L10.8296 34.3207C9.24658 31.5914 8.4152 28.4869 8.4152 25.3027C8.42659 15.3636 16.524 7.27808 26.4778 7.27808C31.3066 7.27808 35.8393 9.15446 39.256 12.5661C42.6612 15.9777 44.7112 20.5037 44.7112 25.3255C44.7112 35.2646 36.4316 43.3501 26.4778 43.3501Z" fill="#3F324D"/>
</svg>